<?xml version="1.0" encoding="UTF-8"?>
<svg xmlns="http://www.w3.org/2000/svg" viewBox="0 0 400 180" role="img" aria-labelledby="title desc">
  <title id="title">Magnetic field gradient detrapping</title>
  <desc id="desc">Phasing out containment fields to detach cargo from gravity anchoring</desc>
  <defs>
    <marker id="mv" markerWidth="7" markerHeight="7" refX="6" refY="3.5" orient="auto">
      <path d="M0,0 L7,3.5 L0,7 Z" fill="#ffab70"/>
    </marker>
  </defs>
  <rect width="400" height="180" fill="#0d1117"/>
  <rect x="4" y="4" width="392" height="172" rx="5" fill="#161b22" stroke="#30363d"/>
  <text x="200" y="22" text-anchor="middle" fill="#ff8c42" font-family="system-ui,sans-serif" font-size="11" font-weight="600">M . grad B - MAGNETIC DETRAPPING</text>
  <g stroke="#ff8c42" stroke-width="1" opacity="0.35" stroke-dasharray="3 4">
    <path d="M80 40 C120 80 80 120 80 160"/><path d="M320 40 C280 80 320 120 320 160"/>
    <path d="M120 50 C200 70 280 50 280 50"/><path d="M120 130 C200 110 280 130 280 130"/>
  </g>
  <g stroke="#8b949e" stroke-width="0.8" opacity="0.5">
    <line x1="200" y1="35" x2="200" y2="145"/>
    <line x1="170" y1="45" x2="230" y2="135"/><line x1="230" y1="45" x2="170" y2="135"/>
  </g>
  <rect x="165" y="68" width="70" height="50" rx="2" fill="#262c36" stroke="#c9d1d9" stroke-width="1.2"/>
  <text x="200" y="98" text-anchor="middle" fill="#c9d1d9" font-family="system-ui,sans-serif" font-size="9">neutralized</text>
  <line x1="200" y1="118" x2="240" y2="88" stroke="#ffab70" stroke-width="2" marker-end="url(#mv)"/>
  <text x="248" y="86" fill="#ffab70" font-family="system-ui,sans-serif" font-size="9">M</text>
  <text x="200" y="155" text-anchor="middle" fill="#8b949e" font-family="system-ui,sans-serif" font-size="8">grad B phased out, gravity grid released</text>
  <text x="200" y="168" text-anchor="middle" fill="#3fb950" font-family="system-ui,sans-serif" font-size="8">detached from spatial anchoring</text>
</svg>
