<?xml version="1.0" encoding="UTF-8"?>
<svg xmlns="http://www.w3.org/2000/svg" viewBox="0 0 400 180" role="img" aria-labelledby="title desc">
  <title id="title">Quantum squeezing operator</title>
  <desc id="desc">Unitary transformation folding space inward on cargo</desc>
  <defs>
    <marker id="in" markerWidth="6" markerHeight="6" refX="5" refY="3" orient="auto">
      <path d="M0,0 L6,3 L0,6 Z" fill="#ffab70"/>
    </marker>
  </defs>
  <rect width="400" height="180" fill="#0d1117"/>
  <rect x="4" y="4" width="392" height="172" rx="5" fill="#161b22" stroke="#30363d"/>
  <text x="200" y="22" text-anchor="middle" fill="#ff8c42" font-family="system-ui,sans-serif" font-size="11" font-weight="600">U_squeeze - SPACE FOLD INWARD</text>
  <polygon points="120,55 280,55 300,75 140,75" fill="none" stroke="#8b949e" stroke-width="1" stroke-dasharray="4 3" opacity="0.5"/>
  <polygon points="140,75 300,75 280,130 120,130" fill="none" stroke="#8b949e" stroke-width="1" stroke-dasharray="4 3" opacity="0.5"/>
  <line x1="120" y1="55" x2="140" y2="75" stroke="#8b949e" stroke-dasharray="4 3" opacity="0.5"/>
  <line x1="280" y1="55" x2="300" y2="75" stroke="#8b949e" stroke-dasharray="4 3" opacity="0.5"/>
  <polygon points="165,78 235,78 245,88 175,88" fill="#262c36" stroke="#ff8c42" stroke-width="1.5"/>
  <polygon points="175,88 245,88 235,118 165,118" fill="#262c36" stroke="#ff8c42" stroke-width="1.5"/>
  <line x1="165" y1="78" x2="175" y2="88" stroke="#ff8c42" stroke-width="1.5"/>
  <line x1="235" y1="78" x2="245" y2="88" stroke="#ff8c42" stroke-width="1.5"/>
  <line x1="280" y1="55" x2="235" y2="78" stroke="#ff8c42" stroke-width="1" opacity="0.6"/>
  <line x1="120" y1="55" x2="165" y2="78" stroke="#ff8c42" stroke-width="1" opacity="0.6"/>
  <line x1="300" y1="75" x2="245" y2="88" stroke="#ff8c42" stroke-width="1" opacity="0.6"/>
  <line x1="140" y1="75" x2="175" y2="88" stroke="#ff8c42" stroke-width="1" opacity="0.6"/>
  <g stroke="#ffab70" stroke-width="1.2" marker-end="url(#in)">
    <line x1="100" y1="65" x2="155" y2="80"/><line x1="300" y1="65" x2="255" y2="80"/>
    <line x1="100" y1="120" x2="155" y2="110"/><line x1="300" y1="120" x2="255" y2="110"/>
  </g>
  <text x="200" y="155" text-anchor="middle" fill="#8b949e" font-family="system-ui,sans-serif" font-size="8">dimensions collapse, zero information loss</text>
</svg>
